<?xml version="1.0" encoding="UTF-8" standalone="no"?>
<!-- Created with Inkscape (http://www.inkscape.org/) -->

<svg
   xmlns:dc="http://purl.org/dc/elements/1.1/"
   xmlns:cc="http://creativecommons.org/ns#"
   xmlns:rdf="http://www.w3.org/1999/02/22-rdf-syntax-ns#"
   xmlns:svg="http://www.w3.org/2000/svg"
   xmlns="http://www.w3.org/2000/svg"
   xmlns:xlink="http://www.w3.org/1999/xlink"
   xmlns:sodipodi="http://sodipodi.sourceforge.net/DTD/sodipodi-0.dtd"
   xmlns:inkscape="http://www.inkscape.org/namespaces/inkscape"
   width="210mm"
   height="297mm"
   viewBox="0 0 210 297"
   version="1.1"
   id="svg8"
   inkscape:version="0.92.4 (5da689c313, 2019-01-14)"
   sodipodi:docname="swss_icon.svg">
  <defs
     id="defs2">
    <path
       inkscape:connector-curvature="0"
       id="path4522"
       d="M 33.46715,55.326712 C 30.865069,74.741407 50.104986,92.791388 69.310709,88.803239 89.158146,86.27551 101.45717,62.009002 91.746279,44.509934 83.465216,26.286064 56.640738,21.723542 42.791924,36.173836 37.513791,41.164915 34.215749,48.117445 33.46715,55.326712 Z"
       style="fill:#000000;fill-opacity:1;fill-rule:nonzero;stroke:#000000;stroke-width:1;stroke-miterlimit:4;stroke-dasharray:none;stroke-opacity:1" />
  </defs>
  <sodipodi:namedview
     id="base"
     pagecolor="#ffffff"
     bordercolor="#666666"
     borderopacity="1.0"
     inkscape:pageopacity="0.0"
     inkscape:pageshadow="2"
     inkscape:zoom="1.979899"
     inkscape:cx="263.73"
     inkscape:cy="955.93798"
     inkscape:document-units="mm"
     inkscape:current-layer="g5011"
     showgrid="false"
     inkscape:window-width="1920"
     inkscape:window-height="1001"
     inkscape:window-x="-9"
     inkscape:window-y="-9"
     inkscape:window-maximized="1" />
  <metadata
     id="metadata5">
    <rdf:RDF>
      <cc:Work
         rdf:about="">
        <dc:format>image/svg+xml</dc:format>
        <dc:type
           rdf:resource="http://purl.org/dc/dcmitype/StillImage" />
        <dc:title></dc:title>
      </cc:Work>
    </rdf:RDF>
  </metadata>
  <g
     inkscape:label="Layer 1"
     inkscape:groupmode="layer"
     id="layer1">
    <g
       id="g8260">
      <circle
         r="34.206844"
         cy="56.418159"
         cx="111.69196"
         id="path5173"
         style="fill:#000000;fill-opacity:1;fill-rule:nonzero;stroke:none;stroke-width:0.84186047;stroke-miterlimit:4;stroke-dasharray:none;stroke-opacity:1" />
      <g
         id="g5011"
         transform="translate(-32.549585,3.7538977)">
        <path
           sodipodi:type="inkscape:offset"
           inkscape:radius="0"
           inkscape:original="M 62.183594 27.65625 C 55.003022 28.009962 47.984321 30.754968 42.791016 36.173828 C 37.512883 41.164907 34.215396 48.116905 33.466797 55.326172 C 30.864716 74.740867 50.104824 92.790883 69.310547 88.802734 C 89.157984 86.275005 101.45698 62.008834 91.746094 44.509766 C 86.570429 33.119847 74.151213 27.06673 62.183594 27.65625 z "
           xlink:href="#path4522"
           style="fill:#000000;fill-opacity:1;fill-rule:nonzero;stroke:#000000;stroke-width:1;stroke-miterlimit:4;stroke-dasharray:none;stroke-opacity:1"
           id="path4862"
           inkscape:href="#path4522"
           d="m 62.183594,27.65625 c -7.180572,0.353712 -14.199273,3.098718 -19.392578,8.517578 -5.278133,4.991079 -8.57562,11.943077 -9.324219,19.152344 -2.602081,19.414695 16.638027,37.464711 35.84375,33.476562 C 89.157984,86.275005 101.45698,62.008834 91.746094,44.509766 86.570429,33.119847 74.151213,27.06673 62.183594,27.65625 Z"
           transform="rotate(-54.190419,98.734409,-22.553768)" />
        <g
           style="fill-rule:evenodd"
           id="g4823"
           transform="matrix(0.00156034,0,0,0.00156034,127.35631,30.673753)">
          <g
             visibility="visible"
             id="Default"
             style="visibility:visible">
            <desc
               id="desc3699">Master slide</desc>
          </g>
          <g
             style="visibility:visible;fill:#e6151c;fill-opacity:1;stroke:none;stroke-opacity:1"
             id="g3982">
            <desc
               id="desc3704">Group</desc>
            <g
               style="fill:#ffffff;fill-opacity:1;stroke:none;stroke-opacity:1"
               id="g3734">
              <desc
                 id="desc3706">Drawing</desc>
              <g
                 style="fill:#ffffff;fill-opacity:1;stroke:none;stroke-opacity:1"
                 id="g3732">
                <g
                   id="g3710"
                   style="fill:#ffffff;fill-opacity:1;stroke:none;stroke-opacity:1">
                  <path
                     style="fill:#ffffff;fill-opacity:1;stroke:none;stroke-opacity:1"
                     id="path3708"
                     d="M 8639,426 6546,3840 9419,5161 11318,2109 Z"
                     inkscape:connector-curvature="0" />
                </g>
                <g
                   id="g3728"
                   style="fill:#ffffff;fill-opacity:1;stroke:none;stroke-opacity:1">
                  <path
                     style="fill:#ffffff;fill-opacity:1;stroke:none;stroke-opacity:1"
                     id="path3712"
                     d="m 8682,453 -2093,3414 -43,-27 -43,-27 2093,-3414 43,27 z"
                     inkscape:connector-curvature="0" />
                  <path
                     style="fill:#ffffff;fill-opacity:1;stroke:none;stroke-opacity:1"
                     id="path3714"
                     d="m 6546,3840 -21,46 -8,-4 -7,-6 -6,-7 -4,-7 -3,-9 -2,-8 v -9 l 2,-9 3,-8 3,-6 z"
                     inkscape:connector-curvature="0" />
                  <path
                     style="fill:#ffffff;fill-opacity:1;stroke:none;stroke-opacity:1"
                     id="path3716"
                     d="m 6567,3794 2873,1321 -21,46 -21,46 -2873,-1321 21,-46 z"
                     inkscape:connector-curvature="0" />
                  <path
                     style="fill:#ffffff;fill-opacity:1;stroke:none;stroke-opacity:1"
                     id="path3718"
                     d="m 9419,5161 43,27 -5,7 -7,6 -7,5 -8,3 -9,2 -9,1 -9,-1 -8,-3 -2,-1 z"
                     inkscape:connector-curvature="0" />
                  <path
                     style="fill:#ffffff;fill-opacity:1;stroke:none;stroke-opacity:1"
                     id="path3720"
                     d="m 9376,5134 1899,-3052 43,27 43,27 -1899,3052 -43,-27 z"
                     inkscape:connector-curvature="0" />
                  <path
                     style="fill:#ffffff;fill-opacity:1;stroke:none;stroke-opacity:1"
                     id="path3722"
                     d="m 11318,2109 27,-43 7,5 6,7 5,7 4,8 2,9 v 9 l -1,9 -3,8 -4,8 z"
                     inkscape:connector-curvature="0" />
                  <path
                     style="fill:#ffffff;fill-opacity:1;stroke:none;stroke-opacity:1"
                     id="path3724"
                     d="M 11291,2152 8612,469 l 27,-43 27,-43 2679,1683 -27,43 z"
                     inkscape:connector-curvature="0" />
                  <path
                     style="fill:#ffffff;fill-opacity:1;stroke:none;stroke-opacity:1"
                     id="path3726"
                     d="m 8639,426 -43,-27 5,-7 6,-6 8,-5 8,-3 8,-2 9,-1 9,1 9,3 8,4 v 0 z"
                     inkscape:connector-curvature="0" />
                </g>
                <g
                   style="fill:#ffffff;fill-opacity:1;stroke:none;stroke-opacity:1"
                   id="g3730" />
              </g>
            </g>
            <g
               style="fill:#ffffff;fill-opacity:1;stroke:none;stroke-opacity:1"
               id="g3768">
              <desc
                 id="desc3736">Drawing</desc>
              <g
                 style="fill:#ffffff;fill-opacity:1;stroke:none;stroke-opacity:1"
                 id="g3766">
                <g
                   id="g3740"
                   style="fill:#ffffff;fill-opacity:1;stroke:none;stroke-opacity:1">
                  <path
                     style="fill:#ffffff;fill-opacity:1;stroke:none;stroke-opacity:1"
                     id="path3738"
                     d="m 12291,2748 -1800,2958 2191,1093 -148,1184 2484,-3779 z"
                     inkscape:connector-curvature="0" />
                </g>
                <g
                   id="g3762"
                   style="fill:#ffffff;fill-opacity:1;stroke:none;stroke-opacity:1">
                  <path
                     style="fill:#ffffff;fill-opacity:1;stroke:none;stroke-opacity:1"
                     id="path3742"
                     d="m 12335,2775 -1800,2958 -44,-27 -44,-27 1800,-2958 44,27 z"
                     inkscape:connector-curvature="0" />
                  <path
                     style="fill:#ffffff;fill-opacity:1;stroke:none;stroke-opacity:1"
                     id="path3744"
                     d="m 10491,5706 -23,46 -7,-5 -7,-6 -6,-7 -4,-8 -3,-8 -1,-9 v -9 l 2,-8 3,-9 2,-4 z"
                     inkscape:connector-curvature="0" />
                  <path
                     style="fill:#ffffff;fill-opacity:1;stroke:none;stroke-opacity:1"
                     id="path3746"
                     d="m 10514,5660 2191,1093 -23,46 -23,46 -2191,-1093 23,-46 z"
                     inkscape:connector-curvature="0" />
                  <path
                     style="fill:#ffffff;fill-opacity:1;stroke:none;stroke-opacity:1"
                     id="path3748"
                     d="m 12682,6799 23,-46 7,5 7,6 6,7 4,8 3,8 1,9 v 9 0 z"
                     inkscape:connector-curvature="0" />
                  <path
                     style="fill:#ffffff;fill-opacity:1;stroke:none;stroke-opacity:1"
                     id="path3750"
                     d="m 12733,6805 -148,1184 -51,-6 -51,-6 148,-1184 51,6 z"
                     inkscape:connector-curvature="0" />
                  <path
                     style="fill:#ffffff;fill-opacity:1;stroke:none;stroke-opacity:1"
                     id="path3752"
                     d="m 12534,7983 43,28 -6,7 -7,6 -7,5 -8,3 -9,2 h -9 l -9,-1 -8,-3 -8,-4 -7,-6 -6,-7 -5,-7 -3,-8 -2,-9 v -9 -3 z"
                     inkscape:connector-curvature="0" />
                  <path
                     style="fill:#ffffff;fill-opacity:1;stroke:none;stroke-opacity:1"
                     id="path3754"
                     d="m 12491,7955 2484,-3779 43,28 43,28 -2484,3779 -43,-28 z"
                     inkscape:connector-curvature="0" />
                  <path
                     style="fill:#ffffff;fill-opacity:1;stroke:none;stroke-opacity:1"
                     id="path3756"
                     d="m 15018,4204 24,-45 7,5 7,6 5,7 4,8 3,8 1,9 -1,9 -2,9 -3,8 -2,4 z"
                     inkscape:connector-curvature="0" />
                  <path
                     style="fill:#ffffff;fill-opacity:1;stroke:none;stroke-opacity:1"
                     id="path3758"
                     d="m 14994,4249 -2727,-1456 24,-45 24,-45 2727,1456 -24,45 z"
                     inkscape:connector-curvature="0" />
                  <path
                     style="fill:#ffffff;fill-opacity:1;stroke:none;stroke-opacity:1"
                     id="path3760"
                     d="m 12291,2748 -44,-27 6,-7 6,-6 8,-5 8,-3 8,-2 9,-1 9,1 9,2 5,3 z"
                     inkscape:connector-curvature="0" />
                </g>
                <g
                   style="fill:#ffffff;fill-opacity:1;stroke:none;stroke-opacity:1"
                   id="g3764" />
              </g>
            </g>
            <g
               style="fill:#ffffff;fill-opacity:1;stroke:none;stroke-opacity:1"
               id="g3802">
              <desc
                 id="desc3770">Drawing</desc>
              <g
                 style="fill:#ffffff;fill-opacity:1;stroke:none;stroke-opacity:1"
                 id="g3800">
                <g
                   id="g3774"
                   style="fill:#ffffff;fill-opacity:1;stroke:none;stroke-opacity:1">
                  <path
                     style="fill:#ffffff;fill-opacity:1;stroke:none;stroke-opacity:1"
                     id="path3772"
                     d="m 15701,5479 -3896,5462 2337,864 3847,-4552 h -49 z"
                     inkscape:connector-curvature="0" />
                </g>
                <g
                   id="g3796"
                   style="fill:#ffffff;fill-opacity:1;stroke:none;stroke-opacity:1">
                  <path
                     style="fill:#ffffff;fill-opacity:1;stroke:none;stroke-opacity:1"
                     id="path3776"
                     d="m 15743,5509 -3896,5462 -42,-30 -42,-30 3896,-5462 42,30 z"
                     inkscape:connector-curvature="0" />
                  <path
                     style="fill:#ffffff;fill-opacity:1;stroke:none;stroke-opacity:1"
                     id="path3778"
                     d="m 11805,10941 -18,48 -8,-4 -7,-5 -6,-6 -5,-8 -4,-8 -2,-8 -1,-9 1,-9 2,-9 4,-8 2,-4 z"
                     inkscape:connector-curvature="0" />
                  <path
                     style="fill:#ffffff;fill-opacity:1;stroke:none;stroke-opacity:1"
                     id="path3780"
                     d="m 11823,10893 2337,864 -18,48 -18,48 -2337,-864 18,-48 z"
                     inkscape:connector-curvature="0" />
                  <path
                     style="fill:#ffffff;fill-opacity:1;stroke:none;stroke-opacity:1"
                     id="path3782"
                     d="m 14142,11805 39,33 -6,6 -8,5 -8,4 -8,2 -9,1 -9,-1 -9,-2 v 0 z"
                     inkscape:connector-curvature="0" />
                  <path
                     style="fill:#ffffff;fill-opacity:1;stroke:none;stroke-opacity:1"
                     id="path3784"
                     d="m 14103,11772 3847,-4552 39,33 39,33 -3847,4552 -39,-33 z"
                     inkscape:connector-curvature="0" />
                  <path
                     style="fill:#ffffff;fill-opacity:1;stroke:none;stroke-opacity:1"
                     id="path3786"
                     d="m 17989,7253 v -51 l 9,1 8,2 8,4 8,5 6,6 5,7 4,9 2,8 1,9 -1,9 -2,8 -4,8 -5,8 v 0 z"
                     inkscape:connector-curvature="0" />
                  <path
                     style="fill:#ffffff;fill-opacity:1;stroke:none;stroke-opacity:1"
                     id="path3788"
                     d="m 17989,7304 h -49 v -51 -51 h 49 v 51 z"
                     inkscape:connector-curvature="0" />
                  <path
                     style="fill:#ffffff;fill-opacity:1;stroke:none;stroke-opacity:1"
                     id="path3790"
                     d="m 17940,7253 v 51 l -9,-1 -8,-2 -8,-4 -7,-4 z"
                     inkscape:connector-curvature="0" />
                  <path
                     style="fill:#ffffff;fill-opacity:1;stroke:none;stroke-opacity:1"
                     id="path3792"
                     d="m 17908,7293 -2239,-1774 32,-40 32,-40 2239,1774 -32,40 z"
                     inkscape:connector-curvature="0" />
                  <path
                     style="fill:#ffffff;fill-opacity:1;stroke:none;stroke-opacity:1"
                     id="path3794"
                     d="m 15701,5479 -42,-30 6,-6 7,-6 8,-4 8,-3 9,-2 h 9 l 9,2 8,3 8,4 2,2 z"
                     inkscape:connector-curvature="0" />
                </g>
                <g
                   style="fill:#ffffff;fill-opacity:1;stroke:none;stroke-opacity:1"
                   id="g3798" />
              </g>
            </g>
            <g
               style="fill:#ffffff;fill-opacity:1;stroke:none;stroke-opacity:1"
               id="g3832">
              <desc
                 id="desc3804">Drawing</desc>
              <g
                 style="fill:#ffffff;fill-opacity:1;stroke:none;stroke-opacity:1"
                 id="g3830">
                <g
                   id="g3808"
                   style="fill:#ffffff;fill-opacity:1;stroke:none;stroke-opacity:1">
                  <path
                     style="fill:#ffffff;fill-opacity:1;stroke:none;stroke-opacity:1"
                     id="path3806"
                     d="m 18573,8255 -3603,4189 1119,1138 4139,-3689 z"
                     inkscape:connector-curvature="0" />
                </g>
                <g
                   id="g3826"
                   style="fill:#ffffff;fill-opacity:1;stroke:none;stroke-opacity:1">
                  <path
                     style="fill:#ffffff;fill-opacity:1;stroke:none;stroke-opacity:1"
                     id="path3810"
                     d="m 18612,8288 -3603,4189 -39,-33 -39,-33 3603,-4189 39,33 z"
                     inkscape:connector-curvature="0" />
                  <path
                     style="fill:#ffffff;fill-opacity:1;stroke:none;stroke-opacity:1"
                     id="path3812"
                     d="m 14970,12444 -36,36 -6,-7 -4,-8 -3,-8 -2,-9 v -9 l 2,-9 3,-8 4,-8 3,-3 z"
                     inkscape:connector-curvature="0" />
                  <path
                     style="fill:#ffffff;fill-opacity:1;stroke:none;stroke-opacity:1"
                     id="path3814"
                     d="m 15006,12408 1119,1138 -36,36 -36,36 -1119,-1138 36,-36 z"
                     inkscape:connector-curvature="0" />
                  <path
                     style="fill:#ffffff;fill-opacity:1;stroke:none;stroke-opacity:1"
                     id="path3816"
                     d="m 16089,13582 34,38 -7,5 -8,4 -9,3 -8,1 -9,-1 -9,-2 -8,-3 -8,-5 -4,-4 z"
                     inkscape:connector-curvature="0" />
                  <path
                     style="fill:#ffffff;fill-opacity:1;stroke:none;stroke-opacity:1"
                     id="path3818"
                     d="m 16055,13544 4139,-3689 34,38 34,38 -4139,3689 -34,-38 z"
                     inkscape:connector-curvature="0" />
                  <path
                     style="fill:#ffffff;fill-opacity:1;stroke:none;stroke-opacity:1"
                     id="path3820"
                     d="m 20228,9893 36,-36 6,7 4,7 3,9 2,8 v 9 l -2,9 -3,8 -4,8 -6,7 -2,2 z"
                     inkscape:connector-curvature="0" />
                  <path
                     style="fill:#ffffff;fill-opacity:1;stroke:none;stroke-opacity:1"
                     id="path3822"
                     d="m 20192,9929 -1655,-1638 36,-36 36,-36 1655,1638 -36,36 z"
                     inkscape:connector-curvature="0" />
                  <path
                     style="fill:#ffffff;fill-opacity:1;stroke:none;stroke-opacity:1"
                     id="path3824"
                     d="m 18573,8255 -39,-33 7,-6 7,-5 8,-4 9,-2 9,-1 8,1 9,2 8,4 7,5 3,3 z"
                     inkscape:connector-curvature="0" />
                </g>
                <g
                   style="fill:#ffffff;fill-opacity:1;stroke:none;stroke-opacity:1"
                   id="g3828" />
              </g>
            </g>
            <g
               style="fill:#ffffff;fill-opacity:1;stroke:none;stroke-opacity:1"
               id="g3954">
              <desc
                 id="desc3834">Drawing</desc>
              <g
                 style="fill:#ffffff;fill-opacity:1;stroke:none;stroke-opacity:1"
                 id="g3952">
                <g
                   id="g3838"
                   style="fill:#ffffff;fill-opacity:1;stroke:none;stroke-opacity:1">
                  <path
                     style="fill:#ffffff;fill-opacity:1;stroke:none;stroke-opacity:1"
                     id="path3836"
                     d="m 5377,4568 -4382,6509 6720,7693 -1267,7375 9884,-91 -438,-6692 2290,-2913 584,-3916 -2629,2186 -2192,-1957 -3992,-957 3896,6101 876,637 -1412,45 -438,1594 -586,-1594 -1460,229 1606,-1411 L 8639,11533 5669,10532 6741,9575 6448,7983 h 633 l 974,1365 2191,-91 1169,-637 146,-1458 z"
                     inkscape:connector-curvature="0" />
                </g>
                <g
                   id="g3948"
                   style="fill:#ffffff;fill-opacity:1;stroke:none;stroke-opacity:1">
                  <path
                     style="fill:#ffffff;fill-opacity:1;stroke:none;stroke-opacity:1"
                     id="path3840"
                     d="m 5419,4596 -4382,6509 -42,-28 -42,-28 4382,-6509 42,28 z"
                     inkscape:connector-curvature="0" />
                  <path
                     style="fill:#ffffff;fill-opacity:1;stroke:none;stroke-opacity:1"
                     id="path3842"
                     d="m 995,11077 -38,34 -6,-8 -4,-8 -2,-8 -1,-9 1,-9 2,-8 3,-9 3,-3 z"
                     inkscape:connector-curvature="0" />
                  <path
                     style="fill:#ffffff;fill-opacity:1;stroke:none;stroke-opacity:1"
                     id="path3844"
                     d="m 1033,11043 6720,7693 -38,34 -38,34 -6720,-7693 38,-34 z"
                     inkscape:connector-curvature="0" />
                  <path
                     style="fill:#ffffff;fill-opacity:1;stroke:none;stroke-opacity:1"
                     id="path3846"
                     d="m 7715,18770 38,-34 6,8 4,8 2,8 1,9 -1,9 v 1 z"
                     inkscape:connector-curvature="0" />
                  <path
                     style="fill:#ffffff;fill-opacity:1;stroke:none;stroke-opacity:1"
                     id="path3848"
                     d="m 7765,18779 -1267,7375 -50,-9 -50,-9 1267,-7375 50,9 z"
                     inkscape:connector-curvature="0" />
                  <path
                     style="fill:#ffffff;fill-opacity:1;stroke:none;stroke-opacity:1"
                     id="path3850"
                     d="m 6448,26145 v 51 l -8,-1 -9,-2 -8,-4 -7,-5 -7,-6 -5,-7 -4,-8 -2,-9 -1,-9 1,-8 v -1 z"
                     inkscape:connector-curvature="0" />
                  <path
                     style="fill:#ffffff;fill-opacity:1;stroke:none;stroke-opacity:1"
                     id="path3852"
                     d="m 6448,26094 9884,-91 v 51 51 l -9884,91 v -51 z"
                     inkscape:connector-curvature="0" />
                  <path
                     style="fill:#ffffff;fill-opacity:1;stroke:none;stroke-opacity:1"
                     id="path3854"
                     d="m 16332,26054 51,-3 v 9 l -2,8 -3,9 -5,7 -6,7 -7,5 -7,5 -9,3 -9,1 h -3 z"
                     inkscape:connector-curvature="0" />
                  <path
                     style="fill:#ffffff;fill-opacity:1;stroke:none;stroke-opacity:1"
                     id="path3856"
                     d="m 16281,26057 -438,-6692 51,-3 51,-3 438,6692 -51,3 z"
                     inkscape:connector-curvature="0" />
                  <path
                     style="fill:#ffffff;fill-opacity:1;stroke:none;stroke-opacity:1"
                     id="path3858"
                     d="m 15894,19362 -51,3 v -9 l 2,-8 3,-9 5,-7 1,-2 z"
                     inkscape:connector-curvature="0" />
                  <path
                     style="fill:#ffffff;fill-opacity:1;stroke:none;stroke-opacity:1"
                     id="path3860"
                     d="m 15854,19330 2290,-2913 40,32 40,32 -2290,2913 -40,-32 z"
                     inkscape:connector-curvature="0" />
                  <path
                     style="fill:#ffffff;fill-opacity:1;stroke:none;stroke-opacity:1"
                     id="path3862"
                     d="m 18184,16449 50,8 -2,8 -3,8 -5,8 z"
                     inkscape:connector-curvature="0" />
                  <path
                     style="fill:#ffffff;fill-opacity:1;stroke:none;stroke-opacity:1"
                     id="path3864"
                     d="m 18134,16441 584,-3916 50,8 50,8 -584,3916 -50,-8 z"
                     inkscape:connector-curvature="0" />
                  <path
                     style="fill:#ffffff;fill-opacity:1;stroke:none;stroke-opacity:1"
                     id="path3866"
                     d="m 18768,12533 -33,-39 8,-5 8,-4 8,-2 9,-1 9,1 9,2 8,4 7,5 6,6 5,8 4,8 2,8 1,9 -1,8 z"
                     inkscape:connector-curvature="0" />
                  <path
                     style="fill:#ffffff;fill-opacity:1;stroke:none;stroke-opacity:1"
                     id="path3868"
                     d="m 18801,12572 -2629,2186 -33,-39 -33,-39 2629,-2186 33,39 z"
                     inkscape:connector-curvature="0" />
                  <path
                     style="fill:#ffffff;fill-opacity:1;stroke:none;stroke-opacity:1"
                     id="path3870"
                     d="m 16139,14719 33,39 -8,5 -8,4 -8,2 -9,1 -9,-1 -9,-2 -8,-4 -7,-5 -1,-1 z"
                     inkscape:connector-curvature="0" />
                  <path
                     style="fill:#ffffff;fill-opacity:1;stroke:none;stroke-opacity:1"
                     id="path3872"
                     d="m 16105,14757 -2192,-1957 34,-38 34,-38 2192,1957 -34,38 z"
                     inkscape:connector-curvature="0" />
                  <path
                     style="fill:#ffffff;fill-opacity:1;stroke:none;stroke-opacity:1"
                     id="path3874"
                     d="m 13947,12762 12,-50 8,3 8,4 6,5 z"
                     inkscape:connector-curvature="0" />
                  <path
                     style="fill:#ffffff;fill-opacity:1;stroke:none;stroke-opacity:1"
                     id="path3876"
                     d="m 13935,12812 -3992,-957 12,-50 12,-50 3992,957 -12,50 z"
                     inkscape:connector-curvature="0" />
                  <path
                     style="fill:#ffffff;fill-opacity:1;stroke:none;stroke-opacity:1"
                     id="path3878"
                     d="m 9955,11805 -43,27 -4,-7 -3,-9 -1,-9 v -9 l 2,-8 4,-9 5,-7 6,-7 7,-5 7,-4 9,-3 9,-1 h 9 l 5,1 z"
                     inkscape:connector-curvature="0" />
                  <path
                     style="fill:#ffffff;fill-opacity:1;stroke:none;stroke-opacity:1"
                     id="path3880"
                     d="m 9998,11778 3896,6101 -43,27 -43,27 -3896,-6101 43,-27 z"
                     inkscape:connector-curvature="0" />
                  <path
                     style="fill:#ffffff;fill-opacity:1;stroke:none;stroke-opacity:1"
                     id="path3882"
                     d="m 13851,17906 -30,41 -7,-6 -5,-6 -1,-2 z"
                     inkscape:connector-curvature="0" />
                  <path
                     style="fill:#ffffff;fill-opacity:1;stroke:none;stroke-opacity:1"
                     id="path3884"
                     d="m 13881,17865 876,637 -30,41 -30,41 -876,-637 30,-41 z"
                     inkscape:connector-curvature="0" />
                  <path
                     style="fill:#ffffff;fill-opacity:1;stroke:none;stroke-opacity:1"
                     id="path3886"
                     d="m 14727,18543 30,-41 7,6 5,6 5,8 2,9 2,8 v 9 l -2,9 -3,8 -5,8 -6,7 -6,5 -8,5 -9,2 -8,2 h -2 z"
                     inkscape:connector-curvature="0" />
                  <path
                     style="fill:#ffffff;fill-opacity:1;stroke:none;stroke-opacity:1"
                     id="path3888"
                     d="m 14729,18594 -1412,45 -2,-51 -2,-51 1412,-45 2,51 z"
                     inkscape:connector-curvature="0" />
                  <path
                     style="fill:#ffffff;fill-opacity:1;stroke:none;stroke-opacity:1"
                     id="path3890"
                     d="m 13315,18588 -49,-14 3,-8 4,-8 6,-6 7,-6 8,-4 8,-3 9,-2 h 2 z"
                     inkscape:connector-curvature="0" />
                  <path
                     style="fill:#ffffff;fill-opacity:1;stroke:none;stroke-opacity:1"
                     id="path3892"
                     d="m 13364,18602 -438,1594 -49,-14 -49,-14 438,-1594 49,14 z"
                     inkscape:connector-curvature="0" />
                  <path
                     style="fill:#ffffff;fill-opacity:1;stroke:none;stroke-opacity:1"
                     id="path3894"
                     d="m 12877,20182 49,14 -3,8 -4,8 -6,6 -7,6 -8,4 -8,3 -9,2 h -9 l -9,-2 -8,-3 -8,-4 -6,-6 -6,-7 -4,-8 -2,-3 z"
                     inkscape:connector-curvature="0" />
                  <path
                     style="fill:#ffffff;fill-opacity:1;stroke:none;stroke-opacity:1"
                     id="path3896"
                     d="m 12829,20200 -586,-1594 48,-18 48,-18 586,1594 -48,18 z"
                     inkscape:connector-curvature="0" />
                  <path
                     style="fill:#ffffff;fill-opacity:1;stroke:none;stroke-opacity:1"
                     id="path3898"
                     d="m 12291,18588 -8,-50 9,-1 9,1 8,2 8,4 8,6 6,6 5,7 3,7 z"
                     inkscape:connector-curvature="0" />
                  <path
                     style="fill:#ffffff;fill-opacity:1;stroke:none;stroke-opacity:1"
                     id="path3900"
                     d="m 12299,18638 -1460,229 -8,-50 -8,-50 1460,-229 8,50 z"
                     inkscape:connector-curvature="0" />
                  <path
                     style="fill:#ffffff;fill-opacity:1;stroke:none;stroke-opacity:1"
                     id="path3902"
                     d="m 10831,18817 8,50 -9,1 -9,-1 -8,-2 -8,-4 -8,-6 -6,-6 -5,-7 -3,-8 -2,-9 -1,-9 1,-9 2,-8 4,-8 6,-8 4,-4 z"
                     inkscape:connector-curvature="0" />
                  <path
                     style="fill:#ffffff;fill-opacity:1;stroke:none;stroke-opacity:1"
                     id="path3904"
                     d="m 10797,18779 1606,-1411 34,38 34,38 -1606,1411 -34,-38 z"
                     inkscape:connector-curvature="0" />
                  <path
                     style="fill:#ffffff;fill-opacity:1;stroke:none;stroke-opacity:1"
                     id="path3906"
                     d="m 12437,17406 43,-28 4,8 3,9 1,8 v 9 l -2,9 -4,8 -4,8 -6,6 -1,1 z"
                     inkscape:connector-curvature="0" />
                  <path
                     style="fill:#ffffff;fill-opacity:1;stroke:none;stroke-opacity:1"
                     id="path3908"
                     d="m 12394,17434 -3798,-5873 43,-28 43,-28 3798,5873 -43,28 z"
                     inkscape:connector-curvature="0" />
                  <path
                     style="fill:#ffffff;fill-opacity:1;stroke:none;stroke-opacity:1"
                     id="path3910"
                     d="m 8639,11533 16,-48 8,3 8,5 6,6 5,6 z"
                     inkscape:connector-curvature="0" />
                  <path
                     style="fill:#ffffff;fill-opacity:1;stroke:none;stroke-opacity:1"
                     id="path3912"
                     d="m 8623,11581 -2970,-1001 16,-48 16,-48 2970,1001 -16,48 z"
                     inkscape:connector-curvature="0" />
                  <path
                     style="fill:#ffffff;fill-opacity:1;stroke:none;stroke-opacity:1"
                     id="path3914"
                     d="m 5669,10532 -16,48 -8,-3 -8,-5 -6,-6 -6,-7 -3,-8 -3,-9 -1,-9 1,-9 2,-8 3,-8 5,-8 6,-6 z"
                     inkscape:connector-curvature="0" />
                  <path
                     style="fill:#ffffff;fill-opacity:1;stroke:none;stroke-opacity:1"
                     id="path3916"
                     d="m 5635,10494 1072,-957 34,38 34,38 -1072,957 -34,-38 z"
                     inkscape:connector-curvature="0" />
                  <path
                     style="fill:#ffffff;fill-opacity:1;stroke:none;stroke-opacity:1"
                     id="path3918"
                     d="m 6741,9575 50,-9 1,9 -1,8 -2,9 -4,8 -5,7 -5,6 z"
                     inkscape:connector-curvature="0" />
                  <path
                     style="fill:#ffffff;fill-opacity:1;stroke:none;stroke-opacity:1"
                     id="path3920"
                     d="m 6691,9584 -293,-1592 50,-9 50,-9 293,1592 -50,9 z"
                     inkscape:connector-curvature="0" />
                  <path
                     style="fill:#ffffff;fill-opacity:1;stroke:none;stroke-opacity:1"
                     id="path3922"
                     d="m 6448,7983 -50,9 -1,-9 1,-8 2,-9 4,-8 5,-7 6,-7 7,-5 8,-4 9,-2 9,-1 v 0 z"
                     inkscape:connector-curvature="0" />
                  <path
                     style="fill:#ffffff;fill-opacity:1;stroke:none;stroke-opacity:1"
                     id="path3924"
                     d="m 6448,7932 h 633 v 51 51 h -633 v -51 z"
                     inkscape:connector-curvature="0" />
                  <path
                     style="fill:#ffffff;fill-opacity:1;stroke:none;stroke-opacity:1"
                     id="path3926"
                     d="m 7081,7983 v -51 l 9,1 8,2 8,4 8,5 6,6 3,3 z"
                     inkscape:connector-curvature="0" />
                  <path
                     style="fill:#ffffff;fill-opacity:1;stroke:none;stroke-opacity:1"
                     id="path3928"
                     d="m 7123,7953 974,1365 -42,30 -42,30 -974,-1365 42,-30 z"
                     inkscape:connector-curvature="0" />
                  <path
                     style="fill:#ffffff;fill-opacity:1;stroke:none;stroke-opacity:1"
                     id="path3930"
                     d="m 8055,9348 2,51 h -9 l -8,-2 -9,-4 -7,-5 -7,-6 -4,-4 z"
                     inkscape:connector-curvature="0" />
                  <path
                     style="fill:#ffffff;fill-opacity:1;stroke:none;stroke-opacity:1"
                     id="path3932"
                     d="m 8053,9297 2191,-91 2,51 2,51 -2191,91 -2,-51 z"
                     inkscape:connector-curvature="0" />
                  <path
                     style="fill:#ffffff;fill-opacity:1;stroke:none;stroke-opacity:1"
                     id="path3934"
                     d="m 10246,9257 24,45 -8,3 -8,2 -6,1 z"
                     inkscape:connector-curvature="0" />
                  <path
                     style="fill:#ffffff;fill-opacity:1;stroke:none;stroke-opacity:1"
                     id="path3936"
                     d="m 10222,9212 1169,-637 24,45 24,45 -1169,637 -24,-45 z"
                     inkscape:connector-curvature="0" />
                  <path
                     style="fill:#ffffff;fill-opacity:1;stroke:none;stroke-opacity:1"
                     id="path3938"
                     d="m 11415,8620 51,5 -2,9 -3,8 -5,8 -5,7 -7,5 -5,3 z"
                     inkscape:connector-curvature="0" />
                  <path
                     style="fill:#ffffff;fill-opacity:1;stroke:none;stroke-opacity:1"
                     id="path3940"
                     d="m 11364,8615 146,-1458 51,5 51,5 -146,1458 -51,-5 z"
                     inkscape:connector-curvature="0" />
                  <path
                     style="fill:#ffffff;fill-opacity:1;stroke:none;stroke-opacity:1"
                     id="path3942"
                     d="m 11561,7162 20,-47 8,4 7,6 6,6 4,8 4,8 2,9 v 8 3 z"
                     inkscape:connector-curvature="0" />
                  <path
                     style="fill:#ffffff;fill-opacity:1;stroke:none;stroke-opacity:1"
                     id="path3944"
                     d="m 11541,7209 -6184,-2594 20,-47 20,-47 6184,2594 -20,47 z"
                     inkscape:connector-curvature="0" />
                  <path
                     style="fill:#ffffff;fill-opacity:1;stroke:none;stroke-opacity:1"
                     id="path3946"
                     d="m 5377,4568 -42,-28 5,-7 7,-6 8,-5 8,-3 9,-2 h 9 l 8,2 8,2 z"
                     inkscape:connector-curvature="0" />
                </g>
                <g
                   style="fill:#ffffff;fill-opacity:1;stroke:none;stroke-opacity:1"
                   id="g3950" />
              </g>
            </g>
            <g
               style="fill:#ffffff;fill-opacity:1;stroke:none;stroke-opacity:1"
               id="g3980">
              <desc
                 id="desc3956">Drawing</desc>
              <g
                 style="fill:#ffffff;fill-opacity:1;stroke:none;stroke-opacity:1"
                 id="g3978">
                <g
                   id="g3960"
                   style="fill:#ffffff;fill-opacity:1;stroke:none;stroke-opacity:1">
                  <path
                     style="fill:#ffffff;fill-opacity:1;stroke:none;stroke-opacity:1"
                     id="path3958"
                     d="m 11513,9849 -1120,1184 -1218,-501 z"
                     inkscape:connector-curvature="0" />
                </g>
                <g
                   id="g3974"
                   style="fill:#ffffff;fill-opacity:1;stroke:none;stroke-opacity:1">
                  <path
                     style="fill:#ffffff;fill-opacity:1;stroke:none;stroke-opacity:1"
                     id="path3962"
                     d="m 11550,9884 -1120,1184 -37,-35 -37,-35 1120,-1184 37,35 z"
                     inkscape:connector-curvature="0" />
                  <path
                     style="fill:#ffffff;fill-opacity:1;stroke:none;stroke-opacity:1"
                     id="path3964"
                     d="m 10393,11033 37,35 -7,6 -7,5 -8,3 -9,2 h -9 l -9,-1 -7,-3 z"
                     inkscape:connector-curvature="0" />
                  <path
                     style="fill:#ffffff;fill-opacity:1;stroke:none;stroke-opacity:1"
                     id="path3966"
                     d="m 10374,11080 -1218,-501 19,-47 19,-47 1218,501 -19,47 z"
                     inkscape:connector-curvature="0" />
                  <path
                     style="fill:#ffffff;fill-opacity:1;stroke:none;stroke-opacity:1"
                     id="path3968"
                     d="m 9175,10532 -19,47 -8,-4 -7,-5 -6,-7 -5,-7 -4,-9 -2,-8 v -9 l 1,-9 3,-8 4,-8 5,-7 7,-6 7,-5 9,-4 h 1 z"
                     inkscape:connector-curvature="0" />
                  <path
                     style="fill:#ffffff;fill-opacity:1;stroke:none;stroke-opacity:1"
                     id="path3970"
                     d="m 9161,10483 2338,-683 14,49 14,49 -2338,683 -14,-49 z"
                     inkscape:connector-curvature="0" />
                  <path
                     style="fill:#ffffff;fill-opacity:1;stroke:none;stroke-opacity:1"
                     id="path3972"
                     d="m 11513,9849 -14,-49 8,-2 h 9 l 9,1 9,3 7,5 7,5 6,7 5,7 3,9 2,8 v 9 l -1,9 -3,9 -5,7 -5,7 z"
                     inkscape:connector-curvature="0" />
                </g>
                <g
                   style="fill:#ffffff;fill-opacity:1;stroke:none;stroke-opacity:1"
                   id="g3976" />
              </g>
            </g>
          </g>
        </g>
        <text
           xml:space="preserve"
           style="font-style:normal;font-weight:normal;font-size:7.05555556px;line-height:1.25;font-family:Aileron;letter-spacing:0px;word-spacing:0px;fill:#ffffff;fill-opacity:0.94117647;stroke:none;stroke-width:0.26458332;-inkscape-font-specification:'Aileron, Normal';font-stretch:normal;font-variant:normal;text-anchor:start;text-align:start;writing-mode:lr;font-variant-ligatures:normal;font-variant-caps:normal;font-variant-numeric:normal;font-feature-settings:normal;"
           id="text4827"><textPath
             xlink:href="#path4862"
             id="textPath9153">A Socialist Worker Student Society Meeting</textPath></text>
      </g>
    </g>
  </g>
</svg>
